<!-- <?xml version="1.0" encoding="utf-8"?>
Generator: Adobe Illustrator 15.1.0, SVG Export Plug-In . SVG Version: 6.00 Build 0) 
<!DOCTYPE svg PUBLIC "-//W3C//DTD SVG 1.1//EN" "http://www.w3.org/Graphics/SVG/1.1/DTD/svg11.dtd"> -->

<svg class="logo" version="1.1" id="Layer_1" xmlns="http://www.w3.org/2000/svg" xmlns:xlink="http://www.w3.org/1999/xlink" x="0px" y="0px" viewBox="0 0 1000 1000" enable-background="new 0 0 1000 1000" xml:space="preserve" height="100%" width="100%">
    
    <path class="secondary-color" d="M792.525,595.011c0,21.416-17.394,38.768-38.851,38.768H230.521c-21.456,0-38.847-17.352-38.847-38.768 V237.667c0-21.409,17.391-38.762,38.847-38.762h523.154c21.457,0,38.851,17.353,38.851,38.762V595.011L792.525,595.011z"/>
    
    <polygon class="primary-color" points="512.722,849.071 181.011,616.382 512.722,616.382 "/>
    
    <path class="shadow" d="M700.339,296.158c-1.905,3.526-5.475,6.117-10.715,6.117c-3.086,0-5.591-0.896-7.522-2.352 c-1.022,26.678-3.789,52.995-4.479,79.789c-0.884,34.221-0.893,68.298-2.451,102.506c-2.289,50.095-5.613,101.028-4.984,151.561 h105.377c9.369,0,16.962-14.078,16.962-31.443V453.256L700.339,296.158z"/>
    
    <path class="primary-color" d="M712.5,682.724c0,21.548-17.464,39.008-39.009,39.008H148.197c-21.542,0-39.007-17.459-39.007-39.008 v-359.59c0-21.542,17.464-39.007,39.007-39.007h525.294c21.545,0,39.009,17.464,39.009,39.007V682.724z"/>
    
    <g enable-background="new">
        <path class="a-shape" d="M460.797,407.878h46.57v200.699h-46.57V587.56c-19.096,17.859-39.634,26.787-61.611,26.787 c-27.75,0-50.69-10.026-68.823-30.084c-17.998-20.468-26.994-46.019-26.994-76.653c0-30.085,8.996-55.152,26.994-75.211 c17.995-20.056,40.522-30.085,67.587-30.085c23.352,0,44.302,9.617,62.847,28.849V407.878z M350.763,507.609 c0,19.234,5.151,34.895,15.454,46.98c10.577,12.229,23.903,18.34,39.975,18.34c17.17,0,31.044-5.905,41.624-17.722 c10.577-12.225,15.866-27.746,15.866-46.568c0-18.819-5.29-34.341-15.866-46.569c-10.58-11.951-24.315-17.927-41.211-17.927 c-15.937,0-29.26,6.047-39.975,18.133C356.05,474.505,350.763,489.614,350.763,507.609z"/>
    </g>
    
    <path class="secondary-color" d="M905.132,207.367c0-3.85-2.192-4.739-4.874-1.976l-61.545,63.432c-2.681,2.763-4.874,8.174-4.874,12.024 v274.276c0,3.85,2.193,9.261,4.874,12.023l61.545,63.435c2.682,2.764,4.874,1.874,4.874-1.976V207.367z"/>
</svg>
